<svg xmlns="http://www.w3.org/2000/svg" viewBox="0 0 800 600">
  <rect width="800" height="600" fill="#efe7dc"/>
  <!-- Shadow on surface -->
  <ellipse cx="400" cy="468" rx="240" ry="14" fill="#2d2925" opacity="0.10"/>
  <!-- Cloth/rag in background -->
  <ellipse cx="530" cy="430" rx="120" ry="32" fill="#d8c2aa" opacity="0.7"/>
  <path d="M416 418 Q470 400 636 410 Q648 420 630 440 Q570 452 416 442Z" fill="#c9b090" opacity="0.7"/>
  <!-- Brush handle -->
  <rect x="538" y="280" width="48" height="168" rx="10" fill="#a7642c"/>
  <!-- Brush ferrule (metal ring) -->
  <rect x="534" y="420" width="56" height="18" rx="4" fill="#c4a882"/>
  <!-- Brush bristles -->
  <rect x="530" y="438" width="64" height="36" rx="6" fill="#2d2925"/>
  <line x1="538" y1="440" x2="538" y2="470" stroke="#4d4542" stroke-width="2"/>
  <line x1="546" y1="440" x2="546" y2="472" stroke="#4d4542" stroke-width="2"/>
  <line x1="554" y1="440" x2="554" y2="474" stroke="#4d4542" stroke-width="2"/>
  <line x1="562" y1="440" x2="562" y2="474" stroke="#4d4542" stroke-width="2"/>
  <line x1="570" y1="440" x2="570" y2="472" stroke="#4d4542" stroke-width="2"/>
  <line x1="578" y1="440" x2="578" y2="470" stroke="#4d4542" stroke-width="2"/>
  <!-- Polish tin (large, main product) -->
  <ellipse cx="330" cy="330" rx="106" ry="34" fill="#2d2925"/>
  <rect x="224" y="330" width="212" height="106" rx="6" fill="#2d2925"/>
  <ellipse cx="330" cy="436" rx="106" ry="22" fill="#1a1612"/>
  <!-- Tin label -->
  <rect x="228" y="342" width="204" height="82" rx="4" fill="#3d3530"/>
  <ellipse cx="330" cy="342" rx="104" ry="22" fill="#3d3530"/>
  <!-- Label text area -->
  <rect x="246" y="352" width="168" height="56" rx="4" fill="#a7642c"/>
  <rect x="254" y="360" width="152" height="10" rx="3" fill="#d8c2aa" opacity="0.8"/>
  <rect x="264" y="376" width="132" height="8" rx="2" fill="#d8c2aa" opacity="0.5"/>
  <rect x="270" y="390" width="80" height="7" rx="2" fill="#d8c2aa" opacity="0.4"/>
  <!-- Tin lid rim -->
  <ellipse cx="330" cy="330" rx="106" ry="34" fill="none" stroke="#4d4542" stroke-width="3"/>
  <!-- Small spray bottle in background -->
  <rect x="186" y="312" width="40" height="120" rx="8" fill="#8f5221"/>
  <rect x="182" y="308" width="48" height="20" rx="6" fill="#a7642c"/>
  <rect x="210" y="290" width="12" height="24" rx="4" fill="#a7642c"/>
  <circle cx="216" cy="290" r="7" fill="#8f5221"/>
</svg>
